<?xml version="1.0"?>
<svg xmlns="http://www.w3.org/2000/svg" xml:space="preserve" width="287.685mm" height="50.837mm" version="1.1" style="shape-rendering:geometricPrecision; text-rendering:geometricPrecision; image-rendering:optimizeQuality; fill-rule:evenodd; clip-rule:evenodd" viewBox="0 0 22900.54 4046.77" xmlns:xlink="http://www.w3.org/1999/xlink">
 <g id="Layer_1">
  <polygon fill="#0077B6" points="1955.47,2405.55 3399.48,1617.91 960.44,1192.62 2.96,2551.38 1017,4043.87 4240.66,2953.15 1301.33,3307.17 790.38,2573.58 1293.46,1844.77 2498.78,1903.8 "></polygon>
  <polygon fill="#1A2330" points="6732.75,3359.69 6732.75,373.3 7251.55,32.76 7490.86,32.76 8811.88,2253.55 8811.88,6.16 9452.35,6.16 9452.35,2929.25 8760.1,3359.69 7404.58,1205.08 6980.38,1809.96 7373.22,1532.81 7373.22,3359.69 "></polygon>
  <polygon fill="#1A2330" points="9616.59,3359.28 9616.59,7.67 11940.35,7.67 11598.53,574.06 10578.01,567.13 10076.81,218.27 10301.44,576.56 10301.44,1369.84 11718.37,1369.84 11718.37,1936.24 10301.44,1936.24 10301.44,3359.28 "></polygon>
  <polygon fill="#1A2330" points="17830.47,3366.54 17812.53,582.84 18106.04,163.97 17487.9,582.57 16785.26,575.46 16785.26,7.86 19585.64,7.86 19585.64,575.46 18545.36,575.46 18545.36,3366.54 "></polygon>
  <polygon fill="#1A2330" points="12111.52,3364.21 12111.52,326.97 12703.86,626.26 12111.52,46.07 12111.52,17.77 12826.4,17.77 12826.4,3364.21 "></polygon>
  <polygon fill="#1A2330" points="5838.26,3359.81 5838.26,322.57 6430.59,621.86 5838.26,41.68 5838.26,13.37 6553.14,13.37 6553.14,3359.81 "></polygon>
  <polygon fill="#1A2330" points="15895.35,3358.23 15895.35,320.99 16487.69,620.27 15895.35,40.1 15895.35,11.79 16610.24,11.79 16610.24,3358.23 "></polygon>
  <polygon fill="#1A2330" points="13003.98,3356.98 13003.98,370.59 13522.79,30.04 13762.09,30.04 15083.11,2250.85 15083.11,3.45 15723.58,3.45 15723.58,2926.54 15031.33,3356.98 13675.81,1202.38 13251.61,1807.25 13644.45,1530.1 13644.45,3356.98 "></polygon>
  <polygon fill="#1A2330" points="20988.64,3359.56 20988.64,1950.49 19757.06,11.47 20552.31,11.47 21235.99,1162.73 20815.33,1151.78 21346.78,1337.14 22120.14,11.47 22900.54,11.47 21668.95,1955.17 21668.95,2930.3 "></polygon>
  <polygon fill="#00A8E8" points="3411.88,1641.22 1967.88,2428.86 4406.91,2854.14 5364.39,1495.39 4350.36,2.9 1126.69,1093.61 4066.02,739.6 4576.97,1473.18 4073.9,2202 2868.57,2142.97 "></polygon>
 </g>
</svg>